<?xml version="1.0" standalone="no"?>
<!DOCTYPE svg PUBLIC "-//W3C//DTD SVG 20010904//EN"
 "http://www.w3.org/TR/2001/REC-SVG-20010904/DTD/svg10.dtd">
<svg version="1.0" xmlns="http://www.w3.org/2000/svg"
 width="467.000000pt" height="335.000000pt" viewBox="0 0 467.000000 335.000000"
 preserveAspectRatio="xMidYMid meet">

<g transform="translate(0.000000,335.000000) scale(0.100000,-0.100000)"
fill="#000000" stroke="none">
<path d="M3116 3019 c-33 -39 -34 -88 -3 -124 l22 -27 -17 -116 c-10 -65 -33
-234 -53 -377 -19 -143 -39 -289 -44 -325 -5 -36 -17 -152 -27 -258 -17 -189
-18 -192 -30 -145 -7 26 -23 102 -34 168 -12 66 -25 130 -30 143 -12 29 -36
28 -44 -1 -14 -58 -47 -366 -52 -487 -2 -74 -7 -163 -10 -197 l-6 -63 -433 0
-434 0 -18 -24 c-10 -12 -45 -71 -78 -129 l-60 -107 -80 -31 c-44 -18 -97 -41
-117 -51 l-38 -18 0 560 0 560 -70 0 -70 0 0 85 0 85 -330 0 -330 0 0 -85 0
-85 -70 0 -70 0 0 -695 0 -695 -100 0 -100 0 0 200 0 200 -195 0 -195 0 0
-490 0 -490 2335 0 2335 0 0 195 0 195 -185 0 -185 0 0 -125 0 -125 -85 0 -85
0 0 238 c-1 252 1 240 -70 616 -22 117 -38 180 -48 183 -28 11 -24 27 -101
-387 -19 -99 -32 -145 -40 -145 -8 0 -42 45 -78 100 -35 55 -96 150 -136 210
l-72 110 3 238 c3 259 -6 385 -38 523 -25 108 -38 144 -55 144 -18 0 -21 -11
-46 -167 -12 -76 -24 -140 -26 -142 -12 -16 -21 46 -58 394 -14 132 -28 247
-30 255 -2 8 -20 123 -40 255 -20 132 -40 254 -46 272 -8 25 -6 37 11 65 47
77 6 148 -85 148 -25 0 -40 -8 -59 -31z"/>
</g>
</svg>
